<svg height="512" viewBox="0 0 128 128" width="512" xmlns="http://www.w3.org/2000/svg" xmlns:xlink="http://www.w3.org/1999/xlink"><linearGradient id="linear-gradient" gradientUnits="userSpaceOnUse" x1="112.34" x2="15.66" y1="116.954" y2="20.275"><stop offset="0" stop-color="#e64a19"/><stop offset="1" stop-color="#ffa726"/></linearGradient><path d="m70.25 0h-12.5a52.81 52.81 0 0 0 -52.75 52.75v33.125a1.75 1.75 0 0 0 3.5 0v-5.375h13v32.9a14.773 14.773 0 0 1 -13-14.65v-4.23a1.75 1.75 0 0 0 -3.5 0v4.23a18.272 18.272 0 0 0 16.5 18.161v1.339a9.761 9.761 0 0 0 9.75 9.75h16.417a9.761 9.761 0 0 0 9.75-9.75v-43a9.761 9.761 0 0 0 -9.75-9.75h-16.417a9.761 9.761 0 0 0 -9.75 9.75v1.75h-4.75v-22.5h6.75a1.75 1.75 0 0 0 1.75-1.75 32.537 32.537 0 0 1 32.5-32.5h12.5a32.537 32.537 0 0 1 32.5 32.5 1.75 1.75 0 0 0 1.75 1.75h6.75v22.5h-4.75v-1.75a9.761 9.761 0 0 0 -9.75-9.75h-16.417a9.761 9.761 0 0 0 -9.75 9.75v43a9.761 9.761 0 0 0 9.75 9.75h16.417a9.761 9.761 0 0 0 9.75-9.75v-1.339a18.272 18.272 0 0 0 16.5-18.161v-46a52.81 52.81 0 0 0 -52.75-52.75zm-16.333 75.25v43a6.257 6.257 0 0 1 -6.25 6.25h-3.417v-55.5h3.417a6.257 6.257 0 0 1 6.25 6.25zm-28.917 0a6.257 6.257 0 0 1 6.25-6.25h9.5v55.5h-9.5a6.257 6.257 0 0 1 -6.25-6.25zm-11.75 1.75h-4.75v-22.5h4.75zm57-60.25h-12.5a36.044 36.044 0 0 0 -35.958 34.25h-13.261a49.308 49.308 0 0 1 49.219-47.5h12.5a49.308 49.308 0 0 1 49.219 47.5h-13.261a36.044 36.044 0 0 0 -35.958-34.25zm44.5 37.75h4.75v22.5h-4.75zm-11.75 63.75a6.257 6.257 0 0 1 -6.25 6.25h-9.5v-25.25a1.75 1.75 0 0 0 -3.5 0v25.25h-3.417a6.257 6.257 0 0 1 -6.25-6.25v-43a6.257 6.257 0 0 1 6.25-6.25h3.417v13.125a1.75 1.75 0 0 0 3.5 0v-13.125h9.5a6.257 6.257 0 0 1 6.25 6.25zm16.5-19.5a14.773 14.773 0 0 1 -13 14.647v-32.897h13zm-32.25-9.665v3.205a1.75 1.75 0 0 1 -3.5 0v-3.205a1.75 1.75 0 0 1 3.5 0z" fill="url(#linear-gradient)"/></svg>