<svg xmlns="http://www.w3.org/2000/svg" data-name="Layer 6" viewBox="0 0 32 32"><defs><linearGradient id="a" x1="19.61" x2="12.39" y1="5.7" y2="9.87" gradientUnits="userSpaceOnUse"><stop offset="0" stop-color="#43e97b"/><stop offset="1" stop-color="#38f9d7"/></linearGradient><linearGradient id="b" x1="30.26" x2="3.49" y1="25.47" y2="10.01" gradientUnits="userSpaceOnUse"><stop offset="0" stop-color="#f6d365"/><stop offset="1" stop-color="#fda085"/></linearGradient></defs><path fill="url(#a)" d="M12.64,8.64a8.39,8.39,0,0,1,6.71,0,.93.93,0,1,0,.76-1.71,10.26,10.26,0,0,0-8.22,0,.93.93,0,1,0,.76,1.71Z"/><path fill="url(#b)" d="M16,2.34a14,14,0,0,0-14,14v9.33a.93.93,0,0,0,.47.81l5.14,2.94a1.87,1.87,0,0,0,2.79-1.62v-8a1.87,1.87,0,0,0-2.79-1.62L3.87,20.33v-4a12.13,12.13,0,1,1,24.27,0v4l-3.74-2.14a1.87,1.87,0,0,0-2.79,1.62v8a1.86,1.86,0,0,0,2.79,1.62l5.14-2.94a.93.93,0,0,0,.47-.81V16.34A14,14,0,0,0,16,2.34ZM8.54,19.81v8L3.87,25.13V22.48Zm19.6,5.32-4.67,2.67v-8h0l4.67,2.67v2.65Z"/></svg>