<?xml version="1.0" encoding="UTF-8"?>
<svg width="400px" height="400px" viewBox="0 0 400 400" version="1.1" xmlns="http://www.w3.org/2000/svg" xmlns:xlink="http://www.w3.org/1999/xlink">
    <!-- Generator: Sketch 63.1 (92452) - https://sketch.com -->
    <title>Grey Icon</title>
    <desc>Created with Sketch.</desc>
    <defs>
        <linearGradient x1="50%" y1="0%" x2="50%" y2="98.0363176%" id="linearGradient-1">
            <stop stop-color="#C7C7C7" offset="0%"></stop>
            <stop stop-color="#A19F9F" offset="100%"></stop>
        </linearGradient>
    </defs>
    <g id="Grey-Icon" stroke="none" stroke-width="1" fill="none" fill-rule="evenodd">
        <g id="Group-2">
            <rect id="Rectangle-Copy" fill="url(#linearGradient-1)" x="0" y="0" width="400" height="400"></rect>
            <g id="person-copy-2" transform="translate(106.382979, 106.382979)" fill="#FFFFFF" fill-rule="nonzero">
                <path d="M0,182.864022 C0.375907837,179.761308 0.685478996,176.658593 1.13877962,173.566804 C4.15709843,152.929383 12.8250909,134.968599 27.3085987,119.760929 C33.8538175,112.889072 41.349862,107.229895 49.6530028,102.575824 C50.8802313,101.887546 51.632047,101.996796 52.6823777,102.8708 C63.981725,112.244494 76.9837137,117.280942 91.7657366,117.707019 C107.985054,118.176796 122.258496,113.096648 134.696623,102.89265 C135.746953,102.029571 136.476657,101.87662 137.703885,102.575824 C158.876342,114.527829 173.337737,132.018836 181.585597,154.589991 C185.112497,164.258661 186.903588,174.276932 187.224215,184.557405 C187.246327,185.333084 187.224215,186.119687 187.224215,187.168492 C186.406063,187.168492 185.698471,187.168492 184.99088,187.168492 C123.994306,187.168492 62.997731,187.168492 2.01221254,187.168492 C1.33778965,187.168492 0.674422883,187.212192 0,187.234043 C0,185.770086 0,184.317054 0,182.864022 Z" id="Path"></path>
                <path d="M38.30013,53.1787108 C38.05057,23.9333436 62.3940139,-0.709845625 92.8516778,0.015620848 C119.951625,0.673074839 144.635378,22.3917274 144.680851,53.1106983 C144.737471,83.5689548 120.223873,106.851894 90.5602632,106.375807 C60.4202211,105.877049 38.0392264,81.1545117 38.30013,53.1787108 Z" id="Path"></path>
            </g>
        </g>
    </g>
</svg>