<?xml version="1.0" encoding="UTF-8"?>
<svg width="124px" height="20px" viewBox="0 0 124 20" version="1.1" xmlns="http://www.w3.org/2000/svg" xmlns:xlink="http://www.w3.org/1999/xlink">
    <!-- Generator: Sketch 62 (91390) - https://sketch.com -->
    <title>Share Button</title>
    <desc>Created with Sketch.</desc>
    <defs>
        <polygon id="path-1" points="0 0.236842105 12.8056847 0.236842105 12.8056847 20 0 20"></polygon>
    </defs>
    <g id="Share-Button" stroke="none" stroke-width="1" fill="none" fill-rule="evenodd">
        <g id="Group-Copy">
            <text id="SHAREABLE-VIEW" font-family="SourceSansPro-Regular, Source Sans Pro" font-size="14" font-weight="normal" fill="#FFFFFF">
                <tspan x="0.332" y="15">SHAREABLE VIEW</tspan>
            </text>
            <g id="Group-12" transform="translate(108.000000, 0.000000)">
                <g id="Group-3">
                    <mask id="mask-2" fill="white">
                        <use xlink:href="#path-1"></use>
                    </mask>
                    <g id="Clip-2"></g>
                    <path d="M0.763605556,17.2494035 C0.753133333,17.2774737 0.740494444,17.2953684 0.740133333,17.313614 C0.737605556,17.4806316 0.733633333,17.648 0.736522222,17.8150175 C0.750966667,18.6697544 1.31899444,19.2490526 2.19505,19.2522105 C4.99546667,19.2613333 7.79624444,19.2595789 10.5963,19.2525614 C11.3022722,19.2511579 11.8775222,18.8294035 12.0078833,18.2122105 C12.0732444,17.9037895 12.0595222,17.5795789 12.0826333,17.2494035 L0.763605556,17.2494035 Z M12.0627722,2.90554386 C12.0627722,2.73607018 12.0642167,2.56519298 12.0627722,2.39466667 C12.0548278,1.55677193 11.4589944,0.954315789 10.6002722,0.952210526 C7.80021667,0.945192982 5.00016111,0.948701754 2.20046667,0.950105263 C1.82238333,0.95045614 1.48799444,1.06694737 1.20055,1.31396491 C0.693188889,1.75010526 0.705827778,2.31642105 0.750966667,2.90554386 L12.0627722,2.90554386 Z M12.0631333,3.64940351 L0.748077778,3.64940351 L0.748077778,16.5094035 L12.0631333,16.5094035 L12.0631333,16.3062456 C12.0631333,15.4101053 12.06205,14.5143158 12.0638556,13.6181754 C12.0642167,13.3644912 12.2148,13.2013333 12.4358,13.2048421 C12.64705,13.2076491 12.7911333,13.3672982 12.8016056,13.6097544 C12.8019667,13.6164211 12.8019667,13.6234386 12.8019667,13.6301053 C12.8016056,15.0472982 12.8128,16.4648421 12.7979944,17.882386 C12.7857167,19.0904561 11.82155,19.9978246 10.5749944,19.9988772 C7.80888333,20.0009825 5.04277222,19.9995789 2.2763,19.9992281 C0.916355556,19.9992281 0.00202222222,19.110807 0.0013,17.7834386 C-4.698193e-05,13.6915088 0.000938888889,9.59957895 0.000577777778,5.50764912 C0.000577777778,4.47782456 -0.00122777778,3.44835088 0.0013,2.41852632 C0.00455,1.15221053 0.930077778,0.243438596 2.23657778,0.240982456 C5.00955,0.235368421 7.78288333,0.235368421 10.5558556,0.240631579 C11.8677722,0.243438596 12.7911333,1.13887719 12.7998,2.41396491 C12.8088278,3.71782456 12.8023278,5.02168421 12.8012444,6.32554386 C12.8012444,6.59642105 12.6586056,6.768 12.4379667,6.77361404 C12.2093833,6.77887719 12.0634944,6.60449123 12.0634944,6.31992982 C12.0624111,5.50378947 12.0631333,4.68835088 12.0631333,3.8725614 L12.0631333,3.64940351 Z" id="Fill-1" fill="#FFFFFF" mask="url(#mask-2)"></path>
                </g>
                <path d="M13.850992,8.14699915 C13.8020273,8.14146049 13.7700786,8.13453716 13.7377827,8.13453716 C12.5942295,8.13349866 11.4506764,8.13661416 10.3071232,8.1300276 C10.1366147,8.1289985 10.1355729,8.21415543 10.1358958,8.33842917 C10.138351,9.44546931 10.1373092,10.5525095 10.1376565,11.6592034 C10.1376565,11.7228981 10.1439073,11.7865927 10.14738,11.8520181 L13.850992,11.8520181 L13.850992,8.14699915 Z M9.43478628,8.1331525 C9.08369845,8.1331525 8.75483576,8.13626799 8.42597307,8.1310755 C8.34262877,8.130037 8.24956098,8.12172901 8.1790656,8.08330453 C8.03043494,8.00264776 7.97001033,7.86556587 8.01411335,7.69802133 C8.0578691,7.53255379 8.17246751,7.4387427 8.34436511,7.43631954 C8.69441114,7.43112704 9.04480444,7.4345887 9.41985376,7.4345887 C9.42541005,7.3490856 9.43374448,7.27396749 9.43409175,7.19850322 C9.43652262,6.91499294 9.4302718,6.63148266 9.43930077,6.34797238 C9.44624612,6.13750321 9.59939126,5.99626732 9.79316675,6 C9.97930233,6.00388298 10.1244603,6.14027254 10.1321002,6.34381838 C10.142171,6.6269825 10.1362674,6.91083894 10.1373092,7.19434922 C10.1376565,7.26531333 10.1373092,7.33627745 10.1373092,7.43251171 L10.3901202,7.43251171 C11.6204904,7.43251171 12.8508605,7.43216554 14.0812306,7.43285787 C14.4507237,7.43285787 14.567753,7.54916978 14.567753,7.917837 C14.5684475,9.13772739 14.5681002,10.3576178 14.5681002,11.5775082 L14.5681002,11.83921 C14.8973102,11.83921 15.2119349,11.8347098 15.5265596,11.8419793 C15.6227528,11.8440563 15.7317949,11.8544413 15.8106247,11.9015199 C15.95613,11.9884077 16.0349598,12.1313744 15.9849532,12.3061884 C15.9359884,12.4761561 15.8123611,12.5658132 15.63074,12.5661594 C15.287292,12.5665056 14.9434968,12.5661594 14.5681002,12.5661594 C14.5681002,12.8389385 14.5684475,13.099948 14.5681002,13.3609574 C14.5681002,13.4533839 14.572962,13.5458103 14.5656693,13.6375444 C14.5500423,13.8383209 14.3909936,13.9982498 14.2128452,14 C14.0239314,14.0020576 13.8638409,13.8369362 13.8596737,13.6219669 C13.8541174,13.3322256 13.8582847,13.041792 13.8579374,12.7517046 L13.8579374,12.5665056 L13.6148499,12.5665056 C12.3778816,12.5665056 11.1409134,12.5665056 9.9039452,12.5665056 C9.54070299,12.5661594 9.43582809,12.4609248 9.43548082,12.0919114 C9.43443902,10.8588667 9.43513355,9.62582201 9.43478628,8.3927773 L9.43478628,8.1331525 Z" id="Fill-4" fill="#FFFFFF"></path>
                <path d="M5.50332897,2.000957 C5.86832298,2.000957 6.23298668,1.99851465 6.5979807,2.00193394 C6.83514423,2.00388782 6.99732709,2.20660282 6.99996958,2.49431157 C7.00261207,2.77225092 6.83283205,2.99548165 6.60062319,2.99694706 C5.86435925,3.00085482 5.12842562,3.00134329 4.39216168,2.99645859 C4.16028313,2.99450471 3.99578809,2.76834317 4.00008214,2.48356523 C4.00437619,2.20806823 4.16391656,2.00486476 4.3898495,2.00242241 C4.76078912,1.99802618 5.13205905,2.000957 5.50332897,2.000957" id="Fill-6" fill="#FFFFFF"></path>
                <path d="M9,2.00151917 C9.00311658,2.5496709 8.54353349,3.00429912 7.99087028,2.99996933 C7.43015206,2.99563953 7.00860652,2.5643922 7.00010401,1.98593192 C6.992049,1.46029511 7.45297459,1.00436795 7.99668779,1.00003816 C8.55472101,0.995275389 8.99685158,1.43691423 9,2.00151917" id="Fill-8" fill="#FFFFFF"></path>
                <path d="M5.61873159,17.9520812 C5.61634168,17.9775295 5.61395177,18.0025314 5.61156186,18.0279798 C5.6390458,18.0471777 5.66682847,18.0828947 5.69431241,18.0828947 C6.22905419,18.0864664 6.76379597,18.0873593 7.29853775,18.0824482 C7.33020402,18.0824482 7.36157156,18.0328909 7.39293909,18.0061031 C7.38815928,17.9882446 7.38308073,17.9703861 7.37830091,17.9520812 L5.61873159,17.9520812 Z M6.491944,18.9990356 C6.21859834,18.9990356 5.94555142,19.001268 5.6725045,18.9985892 C5.29669156,18.994571 5.00512286,18.5561449 5.00004431,17.9927093 C4.99586197,17.4944572 5.28832689,17.0220999 5.63695463,17.0122777 C6.21142862,16.9957586 6.78650009,16.9962051 7.36127282,17.0118313 C7.7218501,17.021207 8.0110289,17.5082975 7.99967684,18.0427131 C7.98832478,18.5659671 7.68928761,18.9941246 7.32841159,18.9981427 C7.04968864,19.0017144 6.77066695,18.9990356 6.491944,18.9990356 L6.491944,18.9990356 Z" id="Fill-10" fill="#FFFFFF"></path>
            </g>
        </g>
    </g>
</svg>